<svg id="Quality-1_Land" xmlns="http://www.w3.org/2000/svg" viewBox="0 0 62 56"><defs><style>.cls-1{fill:none;}.cls-2{fill:#ff4338;}</style></defs><title>Quality-</title><rect class="cls-1" width="62" height="56"/><path class="cls-2" d="M55.50414,7.62262c-1.19193-.86128-2.72331-1.81387-2.72331-1.81387a10.083,10.083,0,0,0-.81627-3.26646A4.75251,4.75251,0,0,0,47.20921.57652c-1.01133.16379-1.76576,0.76942-1.697,1.23135,0.18185,1.2257,1.17011,1.00191,1.23507,1.66135a0.77723,0.77723,0,0,1-.68945.72194c-2.89579.46876-5.08472,4.6009-6.81733,7.13611-2.14948,3.14521-5.18032,4.43464-10.28815,4.43464-5.781,0-7.12865-.9963-9.035-4.53717C18.05782,7.77138,16.11709,3.5561,11.633,3.5561c-3.40647,0-5.80537,4.7772-3.80275,8.34745-2.63392,2.97957-1.582,8.03431,1.48449,10.04007a8.8546,8.8546,0,0,0,7.85616,8.64c0,6.30293,4.27592,11.86641,10.10757,12.81337a0.62218,0.62218,0,0,0,.075.19878,23.02585,23.02585,0,0,1,1.29759,6.20542c0,0.66817-.53069,1.27448-1.71076,1.89263-0.395.20686-1.57635,0.68128-1.57635,1.115a0.32328,0.32328,0,0,0,.3388.275c0.86508,0,2.94144-1.05254,3.78215-1.05254a2.34141,2.34141,0,0,1,1.83884.47127,3.85509,3.85509,0,0,0-1.06256,1.67009,0.34941,0.34941,0,0,0,.40441.33255c0.9538,0,1.617-1.48573,2.96894-1.48573a6.38777,6.38777,0,0,1,2.10452.86943c1.3557,0.66627,3.14957,1.60571,4.22592,1.60571a0.53447,0.53447,0,0,0,.57813-0.50189c0-.30187-0.91818-0.77193-1.67889-1.17072a2.5686,2.5686,0,0,1-.99562-0.655,0.22048,0.22048,0,0,1,.27879-0.24312c0.74,0.08561,3.02141.63942,3.56709,0.63942,0.59062,0,.78817-0.14.78817-0.40877,0-.46068-4.26339-1.47574-6.7017-1.69763a1.71407,1.71407,0,0,1-1.26761-1.32259,27.149,27.149,0,0,1-.75066-5.781,3.5361,3.5361,0,0,1,.14754-1.07195c4.24276-1.0207,5.57034-5.60787,9.70309-6.69486,5.0354-1.32509,9.95507-8.32618,9.95507-15.16854,0-5.59225-2.70328-7.17422-2.11012-9.27062a1.74514,1.74514,0,0,0,1.21882,1.03131c0.4413,0,.77382-0.56063.77382-1.63949a7.26321,7.26321,0,0,0-.86072-2.92833c0.02,0.03064,1.74328-.19436,2.75461-0.38565A0.32165,0.32165,0,0,0,55.50414,7.62262ZM31.75422,50.80945c-1.86512-1.46637-2.25892-5.38908-2.02514-6.61544,0,0,1.28822-.05875,1.81451-0.05063,0.655,0.88381,1.20442,3.78463,1.27007,5.45912C32.87929,51.2751,32.53738,51.34075,31.75422,50.80945ZM49.88153,7.90177a1.063,1.063,0,1,1,1.06276-1.0632A1.063,1.063,0,0,1,49.88153,7.90177Z"/></svg>